Coordinates
version=1
nRows=10
nColumns=40
inDegrees=yes

Units are S.I. units (second, meters, Newtons, ...)
Angles are in degrees.

endheader
time	pelvis_tilt	pelvis_list	pelvis_rotation	pelvis_tx	pelvis_ty	pelvis_tz	hip_flexion_r	hip_adduction_r	hip_rotation_r	knee_angle_r	knee_angle_r_beta	ankle_angle_r	subtalar_angle_r	mtp_angle_r	hip_flexion_l	hip_adduction_l	hip_rotation_l	knee_angle_l	knee_angle_l_beta	ankle_angle_l	subtalar_angle_l	mtp_angle_l	lumbar_extension	lumbar_bending	lumbar_rotation	arm_flex_r	arm_add_r	arm_rot_r	elbow_flex_r	pro_sup_r	wrist_flex_r	wrist_dev_r	arm_flex_l	arm_add_l	arm_rot_l	elbow_flex_l	pro_sup_l	wrist_flex_l	wrist_dev_l
      4.16000000	     -2.17519476	     -1.51668623	     -2.29719941	      1.00425583	      0.93288948	      0.43707492	     32.21494076	    -11.32941924	    -10.01846649	     77.32765108	     77.32765108	      6.68712200	    -17.82763706	      6.06871145	     13.58239550	     -1.60177333	    -13.48879018	     19.55186502	     19.55186502	     11.76645480	     -6.13146270	     -6.11423022	     -9.77392274	      0.31618166	     -0.93861850	     -0.96364312	    -14.30103508	     -2.14490303	     72.41836463	     45.05721391	      0.00000000	      0.00000000	     12.67097949	    -13.28699192	      5.61118190	     30.45797302	     44.86880455	      0.00000000	      0.00000000
      4.17150000	     -1.97930163	     -1.45435200	     -2.50370346	      1.00353506	      0.93344432	      0.43614410	     33.26230623	    -11.29545428	     -9.78917915	     75.61845745	     75.61845745	      6.38580367	    -17.51264799	      5.90925698	     12.39223753	     -1.36020045	    -13.66473182	     18.93624986	     18.93624986	     12.16424357	     -5.92914530	     -6.25013483	    -10.03189989	      0.37251798	     -0.46613095	     -3.15404556	    -14.77440371	     -2.15484175	     69.17743947	     45.16037659	      0.00000000	      0.00000000	     14.57629430	    -13.41595883	      5.45407209	     31.26260228	     44.93645688	      0.00000000	      0.00000000
      4.18300000	     -1.80673996	     -1.35179065	     -2.67973386	      1.00283590	      0.93392748	      0.43518203	     34.13301940	    -11.29694340	     -9.59632827	     73.60963004	     73.60963004	      5.66440279	    -17.28655377	      4.71201652	     11.24112057	     -1.07201449	    -13.85638674	     18.30859276	     18.30859276	     12.39040472	     -5.73371394	     -6.73673023	    -10.15043892	      0.37131868	     -0.66020125	     -3.63321121	    -14.12133460	     -3.54965002	     62.41100921	     45.44387415	      0.00000000	      0.00000000	     16.26226806	    -13.80824058	      5.26721083	     31.44174674	     45.03839260	      0.00000000	      0.00000000
      4.19450000	     -1.63249061	     -1.22263690	     -2.87354584	      1.00218645	      0.93429181	      0.43430570	     34.85847419	    -11.26844784	     -9.38713373	     71.36416522	     71.36416522	      5.10862652	    -17.00188828	      4.14930158	     10.08260115	     -0.75014152	    -14.05391396	     17.65830941	     17.65830941	     12.68114256	     -5.48073739	     -7.02483986	    -10.34125598	      0.33596828	     -0.43074078	     -4.79829106	    -14.05214222	     -4.26083667	     57.44940554	     45.63562594	      0.00000000	      0.00000000	     17.89390298	    -14.05667367	      4.95286703	     32.38589388	     45.14490591	      0.00000000	      0.00000000
      4.20600000	     -1.47765792	     -1.17383495	     -3.06459662	      1.00156339	      0.93455807	      0.43353800	     35.41413632	    -11.11182961	     -9.24993779	     68.80186642	     68.80186642	      4.54852590	    -16.74645824	      3.81318874	      8.93845910	     -0.51505828	    -14.24589200	     16.98626771	     16.98626771	     12.97440154	     -5.20811145	     -7.30574509	    -10.50060326	      0.41306064	     -0.42083187	     -5.39533738	    -13.87131160	     -5.23892333	     51.83916711	     45.86154131	      0.00000000	      0.00000000	     19.30512396	    -14.37154441	      4.55061060	     33.36186131	     45.26035327	      0.00000000	      0.00000000
      4.21750000	     -1.30517963	     -1.12088036	     -3.22056122	      1.00095898	      0.93477817	      0.43283689	     35.75985947	    -10.91815601	     -9.14531233	     65.88364997	     65.88364997	      3.95241057	    -16.59162200	      3.66347002	      7.80306509	     -0.27695221	    -14.40371488	     16.34295540	     16.34295540	     13.25888811	     -4.92977087	     -7.55345497	    -10.69950053	      0.47640418	     -0.53074767	     -5.80001804	    -13.69439412	     -6.43234578	     46.32619733	     46.08631752	      0.00000000	      0.00000000	     20.47614674	    -14.72449612	      3.89439690	     34.65718327	     45.41424896	      0.00000000	      0.00000000
      4.22900000	     -1.19607453	     -1.03857997	     -3.33823556	      1.00041088	      0.93474901	      0.43223408	     35.99605863	    -10.76534534	     -9.15879097	     62.63974147	     62.63974147	      3.39338479	    -16.40182545	      3.63825510	      6.77872473	     -0.03603174	    -14.58748722	     15.77807685	     15.77807685	     13.56882694	     -4.51857911	     -7.83368250	    -10.80463358	      0.49534126	     -0.60707814	     -6.19868713	    -13.57128427	     -7.60808353	     41.04897337	     46.30576591	      0.00000000	      0.00000000	     21.56569731	    -15.04390914	      3.21706917	     36.06775438	     45.56001947	      0.00000000	      0.00000000
      4.24050000	     -1.20859270	     -1.01827029	     -3.46251572	      0.99979111	      0.93442210	      0.43178367	     36.21091358	    -10.49571179	     -9.23401404	     59.09350568	     59.09350568	      2.92687190	    -16.11671016	      4.18669215	      5.91944730	      0.12611010	    -14.68599064	     15.26624403	     15.26624403	     13.92566007	     -4.26954139	     -7.89494203	    -10.81392526	      0.66245353	     -0.57032772	     -7.92504976	    -14.01899648	     -7.73874134	     39.48573925	     46.35733422	      0.00000000	      0.00000000	     22.77959035	    -15.34350708	      2.97239580	     37.03963653	     45.61361240	      0.00000000	      0.00000000
      4.25200000	     -1.11875689	     -0.94366131	     -3.61608720	      0.99932181	      0.93419668	      0.43151204	     36.10355703	    -10.18349195	     -9.28782967	     55.14393294	     55.14393294	      2.41311301	    -15.89036960	      4.61780983	      4.85391233	      0.35585338	    -14.92932030	     14.59517782	     14.59517782	     14.24032707	     -3.80110448	     -8.01069210	    -10.99613445	      0.71312121	      0.02651092	     -9.44801059	    -14.38392188	     -8.00676319	     36.74470489	     46.46314054	      0.00000000	      0.00000000	     24.05083838	    -15.23210965	      2.64750465	     38.60478887	     45.68134910	      0.00000000	      0.00000000
      4.26350000	     -1.21464058	     -0.75608868	     -3.70923797	      0.99886758	      0.93353844	      0.43133177	     35.96175419	     -9.99346183	     -9.47724718	     50.75676814	     50.75676814	      1.16435938	    -15.80885732	      2.73535538	      4.08437144	      0.65894637	    -15.17748656	     14.08452524	     14.08452524	     14.56432980	     -3.27718788	     -8.24989990	    -10.86570225	      0.57394728	     -0.67721575	     -8.16206577	    -13.81479022	    -12.26416707	     29.04850603	     46.96819902	      0.00000000	      0.00000000	     23.88200048	    -15.89235813	      0.54311213	     42.00262643	     46.00264029	      0.00000000	      0.00000000
